<?xml version="1.0" standalone="no"?><!DOCTYPE svg PUBLIC "-//W3C//DTD SVG 1.1//EN" "http://www.w3.org/Graphics/SVG/1.1/DTD/svg11.dtd"><svg t="1617201140785" class="icon" viewBox="0 0 1024 1024" version="1.1" xmlns="http://www.w3.org/2000/svg" p-id="4346" xmlns:xlink="http://www.w3.org/1999/xlink" width="64" height="64"><defs><style type="text/css"></style></defs><path d="M924.2624 419.6096L531.5584 72.3968a20.48 20.48 0 0 0-27.0336-0.1024L99.84 424.2944a20.48 20.48 0 0 0 13.44 35.9168h87.2704v320.8704c0 66.3808 39.3728 137.8048 125.8496 137.8048h234.6496c46.5664 0 96.512-43.3408 101.8624-126.2336 4.864-75.0592 0.1536-123.4432-0.128-126.1056-3.2768-25.1904-27.776-72.9088-96.9216-72.9088l-101.2736 0.0256c-30.8736 1.0496-89.216 21.1712-89.216 89.8816v102.9888a20.48 20.48 0 0 0 40.96 0v-102.9888c0-44.3648 41.472-48.5376 48.9728-48.9472h100.5824c47.9744 0 55.3472 31.2576 56.2432 36.6336 0.0512 0.4864 4.5568 47.3856-0.0512 118.784-4.1472 64.0512-39.6288 87.936-61.0048 87.936h-234.6496c-67.0208 0-84.8896-60.8768-84.8896-96.8448V439.7568a20.48 20.48 0 0 0-20.48-20.5056h-52.992L517.8624 114.9696 856.6272 414.464h-51.3024a20.48 20.48 0 0 0-20.48 20.48v382.0544c0 40.3968-46.4128 62.1056-47.6928 62.6688a20.48 20.48 0 0 0 16.5376 37.504c2.9184-1.3056 72.0896-32.512 72.0896-100.1472V455.424h84.8896a20.4544 20.4544 0 0 0 13.5936-35.8144z" fill="#484848" p-id="4347"></path></svg>